<?xml version="1.0" encoding="UTF-8" standalone="no"?>
<!-- Created with Inkscape (http://www.inkscape.org/) -->

<svg
   xmlns:svg="http://www.w3.org/2000/svg"
   xmlns="http://www.w3.org/2000/svg"
   version="1.1"
   width="744.09448"
   height="1052.3622"
   id="svg2850">
  <defs
     id="defs2852" />
  <g
     id="layer1">
    <path
       d="m 95.817013,214.99031 c -6.47779,-3.22246 -5.14699,-9.25609 3.28928,-14.913 3.720017,-2.49445 5.259027,-4.41828 7.199767,-9 4.00319,-9.45082 6.65385,-14.65452 8.91841,-17.50841 1.17008,-1.47457 3.16041,-4.84957 4.42296,-7.5 1.26255,-2.65043 3.11772,-5.89216 4.12259,-7.20383 1.00488,-1.31167 1.82705,-3.05226 1.82705,-3.86798 0,-0.81572 1.35,-3.0207 3,-4.89994 1.65,-1.87926 3.01001,-4.18866 3.02224,-5.13203 0.0122,-0.94336 0.90222,-2.8402 1.97776,-4.2152 1.07554,-1.375 1.96553,-3.26752 1.97776,-4.20559 0.0122,-0.93808 1.03474,-3.26523 2.27224,-5.17145 6.4395,-9.91928 11.80057,-18.78925 14.10527,-23.33736 3.40566,-6.72073 6.76797,-9.2856 12.1726,-9.2856 2.8103,0 4.44861,0.49633 4.8183,1.45971 0.30807,0.80284 -1.38124,5.26438 -3.75404,9.91455 -2.37279,4.65014 -4.6089,9.28077 -4.96913,10.29028 -1.1587,3.24714 -3.43306,6.64966 -5.04954,7.55429 -0.8654,0.4843 -1.58319,1.87069 -1.59508,3.08086 -0.0119,1.21017 -1.37054,4.67531 -3.01922,7.70031 -1.64868,3.025 -4.15833,7.975 -5.57699,11.00001 -1.41867,3.025 -6.36002,13.19447 -10.98078,22.59882 -4.62077,9.40435 -8.40139,17.61685 -8.40139,18.25 0,1.69403 1.84741,1.4086 5.502,-0.85006 1.78094,-1.10068 5.62777,-2.45443 8.54851,-3.00834 5.05536,-0.95873 8.94949,-3.2296 8.94949,-5.21893 0,-1.83948 9.96599,-21.88132 13.61245,-27.37494 4.51512,-6.80232 10.85857,-11.74614 14.0453,-10.94632 3.28176,0.82367 22.37781,-1.29184 25.84225,-2.86287 1.65,-0.74823 6.825,-2.12215 11.5,-3.05315 4.675,-0.93101 9.7828,-2.32018 11.35066,-3.08705 4.85724,-2.37577 9.12151,-2.7881 10.58592,-1.02359 0.71957,0.86703 1.90165,1.57642 2.62685,1.57642 0.72519,0 1.58848,0.43678 1.91842,0.97063 0.69331,1.1218 -2.12796,7.02937 -3.35701,7.02937 -1.08534,0 -12.66043,17.62881 -14.47891,22.0513 -2.37231,5.76941 -2.9955,9.95452 -1.47539,9.90818 2.9712,-0.0906 12.38613,-8.62956 14.87291,-13.48914 1.71434,-3.35012 3.6702,-5.52859 6,-6.6829 1.9011,-0.94191 6.47011,-4.95439 10.15334,-8.91661 5.73864,-6.17331 6.91902,-7.01961 8.25,-5.91499 0.85427,0.70898 1.55321,1.77183 1.55321,2.36189 0,0.59006 1.22375,2.35016 2.71945,3.91133 2.19603,2.29215 2.50854,3.17623 1.62364,4.59318 -0.6027,0.96508 -1.41472,3.76238 -1.8045,6.21623 -0.38978,2.45384 -1.57042,7.32144 -2.62364,10.81687 -2.13075,7.07155 -2.50172,13.14467 -0.80293,13.14467 1.74101,0 15.67696,-14.75306 17.43444,-18.45667 0.86744,-1.82798 2.50886,-4.16054 3.6476,-5.18347 5.84367,-5.24931 12.11531,-12.05745 13.4053,-14.55202 2.02475,-3.91542 4.88157,-3.56221 9.63504,1.19125 4.92289,4.9229 4.76189,6.06895 -3.37404,24.01693 -2.1232,4.68382 -3.86036,8.92338 -3.86036,9.42126 0,0.49788 -0.72958,1.71141 -1.62128,2.69673 -1.58311,1.74931 -1.3072,4.86599 0.43076,4.86599 0.47974,0 2.70009,-1.6875 4.93411,-3.75 5.49659,-5.07457 13.75746,-11.1098 16.77951,-12.25878 1.36179,-0.51775 3.32208,-2.33267 4.35621,-4.03316 1.03412,-1.70048 5.08433,-5.80893 9.00046,-9.12988 3.91613,-3.32096 7.12023,-6.41292 7.12023,-6.87102 0,-0.45809 2.00841,-2.27523 4.46312,-4.03807 2.45472,-1.76285 5.64087,-4.90466 7.08034,-6.98181 5.25975,-7.58983 12.64206,-10.63241 18.89027,-7.78553 5.60555,2.55406 4.48307,8.47448 -2.56701,13.53946 l -5.08577,3.65376 0.44601,5.37829 c 0.57572,6.94242 2.4789,9.05543 6.61362,7.34278 3.42635,-1.41925 11.48664,-8.94329 18.71377,-17.46879 4.84545,-5.71592 5.12149,-5.88066 8.72224,-5.20515 2.77814,0.52118 4.12075,1.47558 5.30942,3.77422 1.80235,3.48535 1.24779,8.8968 -1.11247,10.85564 -0.81045,0.67261 -1.47354,2.05835 -1.47354,3.07943 0,2.24095 -4.62942,16.26882 -6.68003,20.24154 -0.80709,1.56361 -1.25334,3.05703 -0.99166,3.31871 0.26168,0.26168 2.65736,-1.07732 5.32373,-2.97556 2.66638,-1.89824 7.31646,-4.69046 10.33353,-6.20493 5.39369,-2.70746 8.52425,-5.17047 26.48741,-20.83926 9.55836,-8.3375 13.78215,-10.70234 22.35331,-12.51529 10.04948,-2.12565 13.27473,-0.99885 16.53568,5.77703 2.25029,4.67584 2.17193,5.06893 -2.36467,11.86256 -2.56796,3.84555 -4.22968,7.65005 -4.63593,10.61395 -0.58848,4.29346 -0.4767,4.61986 1.58216,4.61986 1.40071,0 4.33448,-2.20638 7.97805,-6 3.16948,-3.3 6.27896,-6 6.90996,-6 0.63101,0 3.54205,-2.16871 6.46898,-4.81935 2.92694,-2.65066 7.37223,-5.81201 9.87844,-7.02525 2.5062,-1.21323 5.36095,-3.09452 6.34387,-4.18064 0.98293,-1.08612 2.2799,-1.97352 2.88216,-1.97199 0.60225,0.002 2.96589,-0.98812 5.25251,-2.19921 3.57962,-1.89592 4.38802,-2.01068 5.81594,-0.82561 3.29019,2.73061 4.34752,6.23823 3.47317,11.52204 -2.0769,12.55098 -0.60112,12.48818 11.74847,-0.5 5.22959,-5.5 10.32476,-10 11.3226,-10 0.99785,0 3.30159,1.87791 5.11944,4.17313 3.55624,4.49011 3.96662,8.35579 1.3247,12.47831 -0.92723,1.44687 -1.11888,3.08428 -0.58523,5 0.43644,1.56671 0.5907,5.88022 0.3428,9.58557 -0.38129,5.69914 -0.18671,6.83831 1.26309,7.39465 1.211,0.4647 2.78523,-0.51865 5.36567,-3.35172 6.94393,-7.62375 16.72558,-14.58836 22.16652,-15.78273 1.91693,-0.4208 5.05036,-2.05481 6.96317,-3.63114 1.91282,-1.57633 3.97188,-2.86606 4.57569,-2.86606 0.60381,0 2.12843,-1.09702 3.38803,-2.4378 1.2596,-1.34079 4.61432,-3.53822 7.45491,-4.88318 2.8406,-1.34496 5.76856,-3.17295 6.50658,-4.06221 0.8125,-0.979 2.86726,-1.61682 5.20867,-1.61682 2.12675,0 6.23415,-0.89977 9.12755,-1.9995 6.21739,-2.3631 12.5787,-2.63843 13.36912,-0.57864 0.30009,0.78202 -0.039,2.46952 -0.75362,3.75 -1.68337,3.0165 -3.75429,10.60099 -3.81064,13.95603 -0.0451,2.68636 -1.4075,6.52745 -5.45229,15.37212 -1.25761,2.75 -2.61529,6.35 -3.01706,8 -0.40177,1.65 -1.82046,4.43247 -3.15264,6.18328 -5.3947,7.08994 -3.16559,8.36555 14.3726,8.2247 7.73553,-0.0621 14.54625,0.18473 15.13493,0.54855 0.58868,0.36383 1.07033,2.43495 1.07033,4.60249 0,4.14593 -0.69498,4.56974 -6.67487,4.07043 -1.19618,-0.0999 -2.46024,0.28014 -2.80902,0.84448 -0.34878,0.56434 -3.03444,1.02607 -5.96814,1.02607 -4.01719,0 -5.48907,0.40412 -5.96216,1.63697 -0.52223,1.36091 -1.67146,1.54236 -6.81472,1.07599 -3.4026,-0.30854 -6.977,-0.13794 -7.9431,0.3791 -2.95438,1.58113 -9.74551,-1.1177 -12.33066,-4.90026 l -2.26095,-3.30821 1.86035,-4.89604 c 1.16671,-3.07054 1.48913,-5.12547 0.86473,-5.51137 -0.54758,-0.33842 -3.80043,1.82882 -7.22854,4.8161 -10.24887,8.93095 -14.20589,11.01384 -19.43428,10.22979 -6.07576,-0.91111 -8.29864,-3.36214 -8.29864,-9.15034 0,-3.25384 0.8577,-6.14925 2.88821,-9.75 1.58852,-2.81695 3.19189,-6.24673 3.56305,-7.62173 0.61003,-2.25994 0.3567,-2.1522 -2.63821,1.12194 -6.64962,7.2696 -16.59128,21.07186 -18.09955,25.12806 -0.91597,2.46332 -2.07211,2.22175 -8.23513,-1.72068 -3.70108,-2.36756 -5.64662,-4.35407 -6.12107,-6.25 -0.38254,-1.52863 -1.44592,-4.57932 -2.36306,-6.77932 -1.34193,-3.21896 -1.52289,-5.56208 -0.92676,-12 0.40742,-4.4 1.06137,-9.2375 1.45322,-10.75 0.52114,-2.01155 0.34549,-2.74146 -0.65412,-2.7182 -2.15972,0.0503 -4.17846,1.99714 -9.2969,8.96593 -2.62485,3.57375 -7.0863,8.1021 -9.91434,10.063 -4.06795,2.82062 -5.26127,4.28313 -5.71347,7.00227 -0.76049,4.57303 -2.03337,6.7103 -6.6732,11.2049 -3.86108,3.74022 -3.91293,3.75628 -7.05928,2.18667 -1.7433,-0.86967 -3.4862,-2.09344 -3.87312,-2.71949 -1.45326,-2.35142 -0.2357,-9.46956 2.777,-16.23508 9.61543,-21.593 10.74315,-25.5 7.36036,-25.5 -0.74784,0 -4.42284,2.63559 -8.16667,5.85686 -3.74383,3.22128 -8.24907,6.59729 -10.01164,7.50225 -1.76258,0.90496 -4.65039,3.44437 -6.41737,5.64313 -1.76697,2.19877 -3.83531,3.99776 -4.5963,3.99776 -2.83801,0 -14.28165,14.22747 -14.28165,17.75586 0,2.06925 -3.90193,6.24414 -5.83589,6.24414 -0.66385,0 -2.91153,-1.12801 -4.99486,-2.5067 l -3.78788,-2.50669 0.15096,-13.99331 c 0.083,-7.69631 -0.20775,-13.9933 -0.64617,-13.9933 -0.79322,0 -5.86073,7.87325 -9.97636,15.5 -5.30253,9.8262 -16.59159,19.5 -22.75597,19.5 -1.05197,0 -3.8117,-1.84295 -6.13274,-4.09544 -3.59587,-3.48968 -4.1314,-4.52506 -3.62058,-7 0.32972,-1.59751 0.87556,-4.25456 1.21299,-5.90456 0.77086,-3.76951 0.0344,-3.76156 -4.49193,0.0484 -17.41382,14.65797 -16.46636,14.18539 -22.58764,11.26636 -3.29581,-1.57166 -3.531,-1.99279 -3.49038,-6.25 0.024,-2.51064 0.45338,-6.36479 0.95429,-8.56479 2.19703,-9.64954 2.80081,-13.02802 2.4004,-13.43165 -0.23551,-0.2374 -1.88396,0.94972 -3.66322,2.63805 -1.77926,1.68836 -4.81002,3.84548 -6.73502,4.79363 -5.63931,2.77761 -10,7.48358 -10,10.7918 0,3.82537 -3.3729,8.41934 -7.42434,10.11214 -1.79172,0.74863 -6.45921,1.68266 -10.37219,2.07563 l -7.11453,0.71448 -5.02029,-4.23318 c -9.0308,-7.61487 -8.24766,-9.80002 5.93135,-16.54991 3.12511,-1.4877 6.24576,-2.15003 11.05887,-2.34712 4.24701,-0.17392 5.57771,-3.49482 7.33848,-18.31384 0.68453,-5.76112 -0.12916,-5.94176 -5.72755,-1.2715 -2.29339,1.91318 -6.9823,5.75458 -10.4198,8.53646 -3.68944,2.98576 -6.25,5.8345 -6.25,6.9534 0,2.05424 -4.84985,6.03164 -7.35468,6.03164 -0.85027,0 -1.9058,0.60167 -2.34563,1.33704 -2.1663,3.62195 -19.41982,16.64295 -27.54606,20.78865 -7.60485,3.8797 -14.16395,0.98935 -15.32502,-6.75315 -0.85408,-5.69545 -2.11645,-6.34545 -5.04822,-2.59933 -1.68873,2.15779 -2.9644,2.88683 -4.39621,2.5124 -1.33777,-0.34983 -3.53365,0.65402 -6.51997,2.98064 -3.38191,2.63483 -5.88034,3.68024 -10.0364,4.1995 -7.28754,0.91052 -8.43358,-0.0897 -8.40777,-7.33819 0.0173,-4.84348 3.31654,-20.20263 5.42961,-25.27641 0.37769,-0.90687 0.24223,-1.92355 -0.30102,-2.25929 -1.09736,-0.67821 -7.14863,6.16198 -7.14863,8.08061 0,0.66924 -2.25,3.43158 -5,6.13854 -2.75,2.70697 -5,5.61856 -5,6.47021 0,1.79901 -9.01127,8.71878 -11.35404,8.71878 -0.87235,0 -2.61206,1.38904 -3.86602,3.08675 -2.00547,2.71516 -2.70836,3.01838 -5.83869,2.51877 -1.95731,-0.31239 -5.04462,-1.30924 -6.86069,-2.21522 l -3.30195,-1.64723 0.7143,-10.4798 c 0.59284,-8.69776 1.12414,-11.08373 3.12443,-14.03132 1.32557,-1.95333 2.68024,-5.24069 3.01037,-7.30524 0.33014,-2.06455 2.12396,-5.89686 3.98627,-8.51624 4.02049,-5.65491 4.13974,-6.41047 1.01175,-6.41047 -5.49759,0 -15.62573,5.33392 -15.62573,8.22918 0,1.02236 -3.34753,8.97733 -5.51339,13.10186 -0.81764,1.55707 -1.48662,3.41447 -1.48662,4.12756 0,0.71308 -0.675,1.85671 -1.5,2.5414 -0.825,0.68469 -1.5,2.47451 -1.5,3.97739 0,2.0113 -1.43583,4.09045 -5.44014,7.87755 -2.99208,2.82978 -6.34051,5.14506 -7.44097,5.14506 -1.10047,0 -2.24145,0.3893 -2.53551,0.8651 -0.8813,1.42598 -12.48401,3.3139 -15.90334,2.58769 -1.74902,-0.37146 -3.95414,-1.35792 -4.90028,-2.19214 -1.53969,-1.35758 -2.08033,-1.3459 -5.15112,0.11129 -1.88699,0.89543 -4.04454,1.62806 -4.79457,1.62806 -2.18359,0 -9.0699,3.94887 -12.38167,7.10011 -1.67618,1.59494 -3.75858,2.89989 -4.62755,2.89989 -0.86898,0 -2.14015,0.675 -2.82484,1.5 -0.80877,0.9745 -3.04124,1.50231 -6.37245,1.50659 -3.4341,0.004 -6.11835,0.66277 -8.12755,1.99341 -3.55075,2.35156 -4.0094,2.36488 -8.280057,0.24038 z m 73.616727,-31.7564 c 7.08684,-5.96319 13.75337,-20.7652 10.31054,-22.89299 -3.22795,-1.99499 -14.08682,8.93004 -16.1075,16.20563 -2.51068,9.03986 -0.18596,11.72165 5.79696,6.68736 z m 257.05974,-4.01878 c 1.70697,-1.94413 3.10359,-3.87848 3.10359,-4.29855 0,-0.42007 1.70831,-2.54191 3.79625,-4.71521 8.67904,-9.03385 9.5496,-15.67978 1.21225,-9.25434 -4.46153,3.43841 -15.0085,17.71142 -15.0085,20.31071 0,2.67514 3.72212,1.57271 6.89641,-2.04261 z m 167.60359,-2.4652 c 2.14824,-2.2 4.3059,-4 4.79479,-4 2.58224,0 13.70521,-10.35321 13.70521,-12.75675 0,-0.88789 0.98404,-2.66181 2.18676,-3.94204 2.68808,-2.86133 1.31511,-5.17535 -2.01366,-3.39385 -1.12289,0.60095 -3.25416,1.09264 -4.73616,1.09264 -4.71958,0 -16.76864,12.52901 -18.46314,19.19858 -0.46133,1.81578 -1.14664,4.31392 -1.52292,5.55142 -1.08331,3.56278 1.62695,2.77871 6.04912,-1.75 z m -286.89313,-52.0946 c -3.46024,-2.72183 -3.41677,-6.77678 0.11581,-10.80258 1.49748,-1.70656 3.12557,-3.10282 3.61799,-3.10282 0.49241,0 2.43287,-1.35 4.31211,-3.00001 1.87925,-1.65 4.10618,-3 4.94874,-3 2.43363,0 8.39848,5.05084 8.39848,7.11154 0,1.16803 -2.73158,3.88944 -7.25,7.22298 -10.62919,7.84188 -11.04687,8.0064 -14.14313,5.57089 z m 87.34198,-6.95656 c -1.4236,-1.4236 -1.84736,-2.7239 -1.38507,-4.25 0.72171,-2.38246 4.30454,-6.69885 5.5604,-6.69885 0.42656,0 2.80985,-1.37293 5.29622,-3.05096 3.6431,-2.4587 4.90112,-2.84734 6.48059,-2.00203 2.12639,1.13801 6.09901,6.25179 6.09901,7.85099 0,0.54409 -3.0375,3.06316 -6.75,5.59793 -7.61877,5.20185 -11.93249,5.92157 -15.30115,2.55292 z"
       id="path2859"
       style="fill:#aa0000" />
  </g>
</svg>
